<!DOCTYPE svg PUBLIC "-//W3C//DTD SVG 20010904//EN" "http://www.w3.org/TR/2001/REC-SVG-20010904/DTD/svg10.dtd">
<svg version="1.0" xmlns="http://www.w3.org/2000/svg" width="1579px" height="631px" viewBox="0 0 15790 6310" preserveAspectRatio="xMidYMid meet">
<g id="layer101" fill="#010101" stroke="none">
 <path d="M11320 4580 c-137 -22 -249 -85 -334 -189 -112 -136 -158 -285 -158 -506 0 -241 69 -408 222 -540 108 -92 228 -135 380 -135 161 0 289 49 388 148 59 59 128 181 118 207 -3 8 -24 19 -48 25 -24 6 -51 13 -60 16 -12 4 -24 -11 -47 -59 -57 -119 -154 -189 -286 -206 -198 -24 -359 57 -449 228 -50 96 -69 183 -69 321 1 246 76 419 219 500 138 79 308 80 447 2 63 -35 148 -140 168 -208 8 -25 19 -49 26 -51 15 -6 121 16 128 27 2 4 -4 33 -14 63 -54 166 -193 297 -362 343 -70 18 -199 25 -269 14z"/>
 <path d="M12511 4580 c-195 -30 -346 -169 -391 -358 -15 -66 -7 -77 66 -87 57 -7 64 -2 84 60 35 111 97 187 185 227 42 19 66 23 155 23 94 -1 112 -4 168 -30 109 -49 162 -137 149 -246 -8 -62 -30 -99 -82 -136 -55 -40 -98 -55 -260 -93 -175 -40 -269 -82 -333 -148 -57 -59 -83 -124 -83 -213 -1 -120 39 -206 130 -277 87 -69 145 -86 296 -87 111 0 140 3 198 23 127 44 225 164 242 298 4 28 3 54 -1 57 -5 3 -36 7 -68 8 l-59 4 -12 -55 c-26 -127 -95 -190 -229 -209 -113 -16 -236 13 -295 69 -34 33 -61 98 -61 150 0 49 26 115 56 142 33 29 128 67 220 89 223 51 319 91 407 169 66 58 82 100 82 220 0 93 -3 112 -26 161 -49 104 -136 178 -254 218 -70 23 -207 33 -284 21z"/>
 <path d="M10454 4558 c-5 -7 -7 -302 -4 -668 l5 -655 65 0 65 0 5 655 c3 366 1 661 -4 668 -5 7 -31 12 -66 12 -35 0 -61 -5 -66 -12z"/>
 <path d="M5035 4548 c-3 -7 -4 -305 -3 -663 l3 -650 65 -3 65 -3 350 548 350 547 5 -545 5 -544 65 0 65 0 0 660 0 660 -74 0 -74 0 -346 -543 -346 -543 -5 543 -5 543 -58 3 c-40 2 -59 -1 -62 -10z"/>
 <path d="M6156 4551 c-6 -9 479 -1286 497 -1309 7 -9 33 -12 84 -10 l74 3 266 654 c163 403 261 657 255 663 -5 5 -40 8 -77 6 l-68 -3 -81 -207 -81 -208 -286 0 c-264 0 -287 1 -294 18 -4 9 -35 95 -71 190 -35 95 -68 181 -74 192 -9 17 -21 20 -75 20 -35 0 -66 -4 -69 -9z m768 -668 c-83 -210 -184 -480 -184 -492 0 -32 -19 -2 -39 62 -13 39 -63 181 -112 314 -49 132 -89 244 -89 247 0 3 108 6 239 6 l239 0 -54 -137z"/>
 <path d="M7495 4548 c-3 -7 -4 -305 -3 -663 l3 -650 65 0 65 0 3 598 2 597 304 0 c250 0 306 2 315 14 7 8 11 36 9 63 l-3 48 -378 3 c-297 2 -379 0 -382 -10z"/>
 <path d="M8597 4554 c-4 -4 -7 -134 -7 -289 l0 -281 -230 -369 c-135 -215 -227 -372 -222 -377 5 -5 40 -8 78 -6 l69 3 190 307 c104 169 193 307 197 305 4 -1 89 -132 189 -292 100 -159 188 -298 197 -307 11 -14 31 -18 78 -18 35 0 65 4 69 9 3 6 -102 175 -232 378 l-238 368 -5 285 -5 285 -60 3 c-34 2 -64 0 -68 -4z"/>
 <path d="M9727 4554 c-4 -4 -7 -274 -7 -600 l0 -594 -197 -2 -198 -3 0 -60 0 -60 465 0 465 0 0 60 0 60 -197 3 -198 2 -2 598 -3 597 -60 3 c-34 2 -64 0 -68 -4z"/>
 <path d="M6581 2375 c-261 -49 -434 -259 -471 -570 -31 -258 34 -478 185 -630 107 -107 216 -157 372 -170 233 -19 434 87 527 277 21 42 36 82 34 89 -4 11 -89 37 -125 39 -7 0 -26 -28 -43 -62 -63 -128 -168 -196 -314 -205 -229 -15 -398 116 -463 359 -23 86 -23 287 0 383 40 162 137 291 254 335 164 62 365 23 468 -92 34 -37 95 -149 95 -174 0 -27 25 -33 81 -20 81 18 81 18 58 83 -57 166 -195 299 -359 347 -78 23 -211 28 -299 11z"/>
 <path d="M5031 2356 c-8 -9 -10 -192 -9 -667 l3 -654 320 0 c312 0 321 1 378 23 77 32 167 115 198 184 18 43 23 71 23 149 1 91 -1 100 -34 165 -41 79 -113 143 -198 172 l-52 19 29 21 c16 11 49 52 75 90 63 95 250 478 242 497 -8 22 -145 17 -157 -5 -5 -8 -49 -98 -98 -200 -113 -234 -157 -297 -242 -339 -60 -30 -66 -31 -196 -31 l-133 0 0 283 c0 207 -3 286 -12 295 -17 17 -123 16 -137 -2z m606 -742 c107 -36 147 -95 148 -214 0 -104 -30 -163 -100 -199 -49 -25 -56 -26 -277 -29 l-228 -3 0 230 0 231 205 0 c162 0 214 -3 252 -16z"/>
 </g>
<g id="layer102" fill="#9fc131" stroke="none">
 <path d="M1805 4551 c-3 -5 37 -138 89 -295 51 -157 93 -286 92 -286 -1 0 -96 41 -212 91 -379 164 -391 169 -441 169 -119 0 -201 -104 -179 -225 8 -41 74 -120 109 -131 12 -4 78 -33 146 -66 160 -77 386 -171 573 -238 l148 -53 64 -196 c36 -108 216 -659 401 -1226 186 -566 341 -1038 346 -1047 9 -17 37 -18 368 -18 275 0 361 3 369 13 5 6 148 435 317 952 169 517 308 941 310 943 1 1 137 -25 301 -58 2061 -417 4390 -693 6674 -792 335 -14 1719 -16 1950 -2 191 12 187 28 -7 31 -520 8 -1217 34 -1668 63 -2095 137 -4589 492 -6620 944 -519 116 -531 119 -527 140 2 10 96 300 208 644 113 344 203 631 200 639 -4 10 -70 13 -335 13 -181 0 -332 -4 -335 -8 -3 -5 -88 -262 -189 -571 -102 -309 -187 -565 -191 -568 -8 -8 -380 93 -733 199 l-272 81 -122 371 c-67 204 -128 394 -136 421 -8 28 -20 56 -25 63 -13 15 -663 18 -673 3z m1355 -1339 c124 -33 287 -74 363 -93 84 -20 136 -38 133 -44 -2 -6 -80 -242 -172 -523 -92 -282 -171 -509 -175 -505 -4 5 -84 244 -179 533 -94 289 -184 565 -200 613 -25 76 -27 87 -12 83 9 -3 118 -32 242 -64z"/>
 </g>

</svg>